<?xml version="1.0" encoding="UTF-8" standalone="no"?>
<svg
   aria-hidden="true"
   focusable="false"
   data-prefix="fad"
   data-icon="volume-up"
   role="img"
   viewBox="0 0 576 512"
   class="svg-inline--fa fa-volume-up fa-w-18"
   style="--fa-secondary-opacity: 1.0; --fa-primary-opacity: 0.1;"
   version="1.1"
   id="svg2990"
   sodipodi:docname="vol_3.svg"
   inkscape:version="1.1.1 (3bf5ae0d25, 2021-09-20)"
   xmlns:inkscape="http://www.inkscape.org/namespaces/inkscape"
   xmlns:sodipodi="http://sodipodi.sourceforge.net/DTD/sodipodi-0.dtd"
   xmlns="http://www.w3.org/2000/svg"
   xmlns:svg="http://www.w3.org/2000/svg">
  <defs
     id="defs2994" />
  <sodipodi:namedview
     id="namedview2992"
     pagecolor="#505050"
     bordercolor="#eeeeee"
     borderopacity="1"
     inkscape:pageshadow="0"
     inkscape:pageopacity="0"
     inkscape:pagecheckerboard="0"
     showgrid="false"
     inkscape:zoom="1.2578125"
     inkscape:cx="287.80124"
     inkscape:cy="255.60248"
     inkscape:window-width="1920"
     inkscape:window-height="1080"
     inkscape:window-x="0"
     inkscape:window-y="0"
     inkscape:window-maximized="1"
     inkscape:current-layer="g2988" />
  <g
     class="fa-group"
     id="g2988">
    <path
       fill="currentColor"
       d="M0 328V184a24 24 0 0 1 24-24h102.06l89-88.95c15-15 41-4.49 41 17V424c0 21.44-25.94 32-41 17l-89-88.95H24A24 24 0 0 1 0 328z"
       class="fa-secondary"
       id="path2984"
       style="fill:#63718b;fill-opacity:1;opacity:0.95" />
    <path
       fill="currentColor"
       d="M338.23 179.13a24 24 0 1 0-23.16 42.06 39.42 39.42 0 0 1 0 69.62 24 24 0 1 0 23.16 42.06 87.43 87.43 0 0 0 0-153.74zM480 256a184.64 184.64 0 0 0-85.77-156.24 23.9 23.9 0 0 0-33.12 7.46 24.29 24.29 0 0 0 7.41 33.36 136.67 136.67 0 0 1 0 230.84 24.28 24.28 0 0 0-7.41 33.36 23.94 23.94 0 0 0 33.12 7.46A184.62 184.62 0 0 0 480 256zM448.35 20a24.2 24.2 0 1 0-26.56 40.46 233.65 233.65 0 0 1 0 391.16A24.2 24.2 0 1 0 448.35 492a282 282 0 0 0 0-472.07z"
       class="fa-primary"
       id="path2986"
       style="fill:#cddbf9;fill-opacity:1" />
  </g>
</svg>
