<?xml version="1.0" encoding="UTF-8" standalone="no"?>
<svg
   aria-hidden="true"
   focusable="false"
   data-prefix="fad"
   data-icon="volume-up"
   role="img"
   viewBox="0 0 576 512"
   class="svg-inline--fa fa-volume-up fa-w-18"
   style="--fa-secondary-opacity: 1.0; --fa-primary-opacity: 0.1;"
   version="1.1"
   id="svg2990"
   sodipodi:docname="vol_mute.svg"
   inkscape:version="1.1.1 (3bf5ae0d25, 2021-09-20)"
   xmlns:inkscape="http://www.inkscape.org/namespaces/inkscape"
   xmlns:sodipodi="http://sodipodi.sourceforge.net/DTD/sodipodi-0.dtd"
   xmlns="http://www.w3.org/2000/svg"
   xmlns:svg="http://www.w3.org/2000/svg">
  <defs
     id="defs2994" />
  <sodipodi:namedview
     id="namedview2992"
     pagecolor="#505050"
     bordercolor="#eeeeee"
     borderopacity="1"
     inkscape:pageshadow="0"
     inkscape:pageopacity="0"
     inkscape:pagecheckerboard="0"
     showgrid="false"
     inkscape:zoom="1.2578125"
     inkscape:cx="293.36646"
     inkscape:cy="317.61491"
     inkscape:window-width="1920"
     inkscape:window-height="1080"
     inkscape:window-x="0"
     inkscape:window-y="0"
     inkscape:window-maximized="1"
     inkscape:current-layer="svg2990" />
  <path
     id="path2984"
     style="opacity:0.95;fill:#63718b;fill-opacity:1"
     class="fa-secondary"
     d="M 231.2168 64.017578 C 225.51001 64.166077 219.74805 66.363281 215.06055 71.050781 L 126.06055 160 L 107.33789 160 L 256.06055 256.24023 L 256.06055 88.050781 C 256.06055 73.276406 243.77173 63.690881 231.2168 64.017578 z M 24 160 A 24 24 0 0 0 0 184 L 0 328 A 24 24 0 0 0 24 352.05078 L 126.06055 352.05078 L 215.06055 441 C 230.12055 456 256.06055 445.44 256.06055 424 L 256.06055 295.94336 L 45.980469 160 L 24 160 z " />
  <path
     id="path827"
     style="fill:#cddbf9;fill-opacity:1"
     d="M 439.58008 16.388672 A 24.2 24.2 0 0 0 421.78906 60.460938 A 233.65 233.65 0 0 1 503.4668 359.09961 L 463.28516 333.05078 A 184.62 184.62 0 0 0 480 256 A 184.64 184.64 0 0 0 394.23047 99.759766 A 23.9 23.9 0 0 0 379.84766 96.050781 A 23.9 23.9 0 0 0 361.10938 107.2207 A 24.29 24.29 0 0 0 368.51953 140.58008 A 136.67 136.67 0 0 1 422.25391 306.44922 L 380.70117 279.50977 A 87.43 87.43 0 0 0 338.23047 179.13086 A 24.007443 24.007443 0 0 0 327.95703 176.18555 A 24.007443 24.007443 0 0 0 315.07031 221.18945 A 39.42 39.42 0 0 1 335.56055 250.24609 L 29.675781 51.939453 A 14.066449 11.988605 53.128281 0 0 12.630859 55.460938 L 1.6425781 77.542969 A 14.066449 11.988605 53.128281 0 0 7.6738281 96.099609 L 544.33789 444.01367 A 14.066449 11.988605 53.128281 0 0 561.375 440.49414 L 572.37109 418.41016 A 14.066449 11.988605 53.128281 0 0 566.33203 399.85547 L 544.36914 385.61719 A 282 282 0 0 0 448.34961 19.929688 L 448.34961 20 A 24.2 24.2 0 0 0 439.58008 16.388672 z M 370.55664 370.0332 A 136.67 136.67 0 0 1 368.51953 371.41992 A 24.28 24.28 0 0 0 361.10938 404.7793 A 23.94 23.94 0 0 0 394.23047 412.24023 A 184.62 184.62 0 0 0 413.74609 397.98242 L 370.55664 370.0332 z M 455.38477 424.92578 A 233.65 233.65 0 0 1 421.78906 451.61914 A 24.2 24.2 0 1 0 448.34961 492 A 282 282 0 0 0 496.91406 451.80078 L 455.38477 424.92578 z " />
</svg>
