<?xml version="1.0" encoding="UTF-8" standalone="no"?>
<svg
   aria-hidden="true"
   focusable="false"
   data-prefix="fad"
   data-icon="volume-up"
   role="img"
   viewBox="0 0 576 512"
   class="svg-inline--fa fa-volume-up fa-w-18"
   style="--fa-secondary-opacity: 1.0; --fa-primary-opacity: 0.1;"
   version="1.1"
   id="svg2990"
   sodipodi:docname="vol_null.svg"
   inkscape:version="1.1.1 (3bf5ae0d25, 2021-09-20)"
   xmlns:inkscape="http://www.inkscape.org/namespaces/inkscape"
   xmlns:sodipodi="http://sodipodi.sourceforge.net/DTD/sodipodi-0.dtd"
   xmlns="http://www.w3.org/2000/svg"
   xmlns:svg="http://www.w3.org/2000/svg">
  <defs
     id="defs2994" />
  <sodipodi:namedview
     id="namedview2992"
     pagecolor="#505050"
     bordercolor="#eeeeee"
     borderopacity="1"
     inkscape:pageshadow="0"
     inkscape:pageopacity="0"
     inkscape:pagecheckerboard="0"
     showgrid="false"
     inkscape:zoom="1.2578125"
     inkscape:cx="151.85093"
     inkscape:cy="308.07453"
     inkscape:window-width="1920"
     inkscape:window-height="1080"
     inkscape:window-x="0"
     inkscape:window-y="0"
     inkscape:window-maximized="1"
     inkscape:current-layer="svg2990" />
  <path
     fill="currentColor"
     d="M 0,328 V 184 a 24,24 0 0 1 24,-24 h 102.06 l 89,-88.95 c 15,-15 41,-4.49 41,17 V 424 c 0,21.44 -25.94,32 -41,17 l -89,-88.95 H 24 A 24,24 0 0 1 0,328 Z"
     class="fa-secondary"
     id="path2984"
     style="opacity:0.95;fill:#63718b;fill-opacity:1" />
  <path
     fill="currentColor"
     d="m 324.72,210.36 a 16.14,16.14 0 0 1 0,-22.82 l 22.82,-22.82 a 16.14,16.14 0 0 1 22.82,0 l 45.64,45.64 45.64,-45.64 a 16.14,16.14 0 0 1 22.82,0 l 22.82,22.82 a 16.14,16.14 0 0 1 0,22.82 l -45.64,45.64 45.64,45.64 a 16.14,16.14 0 0 1 0,22.82 l -22.82,22.82 a 16.14,16.14 0 0 1 -22.82,0 L 416,301.64 370.37,347.27 a 16.14,16.14 0 0 1 -22.82,0 l -22.82,-22.82 a 16.14,16.14 0 0 1 0,-22.82 L 370.36,256 Z"
     class="fa-primary"
     id="path3381"
     style="fill:#cddbf9;fill-opacity:1" />
</svg>
